<svg width="20" height="20" viewBox="0 0 20 20" fill="none" xmlns="http://www.w3.org/2000/svg">
<g clip-path="url(#clip0_5828_21993)">
<path d="M10.0002 9.4444C10.8201 9.4455 11.622 9.20337 12.3043 8.74864C12.9865 8.29391 13.5186 7.64702 13.8331 6.88982C14.1477 6.13262 14.2305 5.29914 14.0713 4.49483C13.912 3.69052 13.5177 2.95153 12.9383 2.37137C12.3589 1.7912 11.6205 1.39593 10.8164 1.23556C10.0123 1.0752 9.17867 1.15694 8.42105 1.47046C7.66343 1.78398 7.01582 2.31518 6.56018 2.99685C6.10454 3.67852 5.86133 4.48003 5.86133 5.29996C5.86133 6.39817 6.29721 7.45149 7.07324 8.22856C7.84928 9.00564 8.902 9.44293 10.0002 9.4444ZM10.0002 2.26107C10.6006 2.25997 11.1879 2.43708 11.6875 2.76996C12.1872 3.10285 12.5769 3.57653 12.8071 4.13103C13.0374 4.68552 13.098 5.29589 12.9811 5.88481C12.8642 6.47374 12.5752 7.01474 12.1507 7.43929C11.7261 7.86384 11.1851 8.15285 10.5962 8.26972C10.0073 8.38658 9.39689 8.32604 8.8424 8.09577C8.2879 7.8655 7.81422 7.47584 7.48133 6.97617C7.14845 6.47649 6.97134 5.88926 6.97244 5.28885C6.97391 4.48628 7.29338 3.71701 7.86088 3.14951C8.42838 2.58201 9.19765 2.26254 10.0002 2.26107Z" fill="black"/>
<path d="M3.33314 17.7167V14.3167C4.19085 13.4165 5.2265 12.7047 6.37424 12.2265C7.52198 11.7482 8.75667 11.5141 9.99981 11.5389C11.7013 11.5157 13.376 11.9637 14.8387 12.8334L15.5887 11.9945C13.9164 10.9411 11.9761 10.3915 9.99981 10.4111C8.55381 10.3743 7.11749 10.6569 5.79325 11.2389C4.46901 11.8208 3.28946 12.6877 2.3387 13.7778C2.26459 13.8733 2.22363 13.9903 2.22203 14.1111V17.7167C2.21456 18.0193 2.32728 18.3126 2.53552 18.5323C2.74376 18.752 3.03056 18.8802 3.33314 18.8889H10.2165L9.16092 17.7778L3.33314 17.7167Z" fill="black"/>
<path d="M16.6665 17.7168V17.7779H14.9165L13.9165 18.889H16.6665C16.9652 18.8803 17.2486 18.7551 17.4562 18.5402C17.6638 18.3254 17.7792 18.0378 17.7776 17.739V14.5557L16.6665 15.7946V17.7168Z" fill="black"/>
<path d="M19.3111 10.3444C19.2012 10.2467 19.0571 10.1964 18.9102 10.2048C18.7634 10.2131 18.6258 10.2793 18.5277 10.3889L12.0722 17.6111L9.1833 14.5056C9.13588 14.4501 9.078 14.4045 9.01297 14.3715C8.94794 14.3384 8.87703 14.3184 8.80429 14.3128C8.73155 14.3071 8.6584 14.3158 8.58903 14.3384C8.51965 14.361 8.45541 14.397 8.39996 14.4444C8.34565 14.4939 8.30167 14.5535 8.27057 14.6201C8.23947 14.6866 8.22186 14.7586 8.21876 14.8319C8.21566 14.9053 8.22713 14.9785 8.25251 15.0474C8.27789 15.1163 8.31668 15.1795 8.36663 15.2333L12.0833 19.2333L19.3555 11.1111C19.4482 11.0022 19.4954 10.8617 19.4871 10.7189C19.4788 10.5761 19.4158 10.4419 19.3111 10.3444Z" fill="black"/>
</g>
<defs>
<clipPath id="clip0_5828_21993">
<rect width="20" height="20" fill="white"/>
</clipPath>
</defs>
</svg>
