<svg width="28" height="29" viewBox="0 0 28 29" fill="none" xmlns="http://www.w3.org/2000/svg">
<rect y="0.5" width="28" height="28" rx="14" fill="#F2F2F2"/>
<path d="M15.525 20.3332C15.4005 20.3337 15.2775 20.3062 15.165 20.2528C15.0525 20.1995 14.9534 20.1216 14.875 20.0249L10.85 15.0249C10.7274 14.8758 10.6604 14.6888 10.6604 14.4957C10.6604 14.3027 10.7274 14.1157 10.85 13.9666L15.0166 8.96657C15.1581 8.79639 15.3613 8.68937 15.5817 8.66905C15.8021 8.64874 16.0215 8.71679 16.1916 8.85824C16.3618 8.99969 16.4688 9.20295 16.4892 9.4233C16.5095 9.64366 16.4414 9.86306 16.3 10.0332L12.575 14.4999L16.175 18.9666C16.2769 19.0889 16.3416 19.2378 16.3615 19.3958C16.3814 19.5538 16.3556 19.7141 16.2873 19.8579C16.2189 20.0017 16.1107 20.1228 15.9757 20.2071C15.8406 20.2913 15.6842 20.3351 15.525 20.3332Z" fill="black"/>
</svg>
