<svg width="50" height="50" viewBox="0 0 50 50" fill="none" xmlns="http://www.w3.org/2000/svg">
<rect width="50" height="50.0001" rx="25" fill="#E6F5F3"/>
<path d="M31.1009 40.1529H20.4342C15.5676 40.1529 12.7676 37.3529 12.7676 32.4862V19.1529C12.7676 14.2862 15.5676 11.4862 20.4342 11.4862H31.1009C35.9676 11.4862 38.7676 14.2862 38.7676 19.1529V32.4862C38.7676 37.3529 35.9676 40.1529 31.1009 40.1529ZM20.4342 13.4862C16.6209 13.4862 14.7676 15.3395 14.7676 19.1529V32.4862C14.7676 36.2995 16.6209 38.1529 20.4342 38.1529H31.1009C34.9142 38.1529 36.7676 36.2995 36.7676 32.4862V19.1529C36.7676 15.3395 34.9142 13.4862 31.1009 13.4862H20.4342Z" fill="#009688"/>
<path d="M34.4342 22.1529H31.7675C29.7408 22.1529 28.1008 20.5129 28.1008 18.4862V15.8196C28.1008 15.2729 28.5542 14.8196 29.1008 14.8196C29.6475 14.8196 30.1008 15.2729 30.1008 15.8196V18.4862C30.1008 19.4062 30.8475 20.1529 31.7675 20.1529H34.4342C34.9808 20.1529 35.4342 20.6062 35.4342 21.1529C35.4342 21.6996 34.9808 22.1529 34.4342 22.1529Z" fill="#009688"/>
<path d="M25.7677 28.153H20.4343C19.8877 28.153 19.4343 27.6996 19.4343 27.153C19.4343 26.6063 19.8877 26.153 20.4343 26.153H25.7677C26.3143 26.153 26.7677 26.6063 26.7677 27.153C26.7677 27.6996 26.3143 28.153 25.7677 28.153Z" fill="#009688"/>
<path d="M31.101 33.4862H20.4343C19.8877 33.4862 19.4343 33.0329 19.4343 32.4862C19.4343 31.9395 19.8877 31.4862 20.4343 31.4862H31.101C31.6477 31.4862 32.101 31.9395 32.101 32.4862C32.101 33.0329 31.6477 33.4862 31.101 33.4862Z" fill="#009688"/>
</svg>
