<svg width="50" height="50" viewBox="0 0 50 50" fill="none" xmlns="http://www.w3.org/2000/svg">
<rect x="0.5" y="0.5" width="49" height="49" rx="24.5" stroke="#ECECEE"/>
<g clip-path="url(#clip0_699_3390)">
<path d="M26.9544 15.4549C27.4514 14.95 28.0434 14.5484 28.6963 14.2734C29.3491 13.9984 30.05 13.8554 30.7585 13.8526C31.4669 13.8498 32.1689 13.9872 32.8239 14.257C33.479 14.5268 34.0741 14.9237 34.5751 15.4246C35.076 15.9256 35.4728 16.5207 35.7427 17.1758C36.0125 17.8308 36.1499 18.5328 36.1471 19.2412C36.1443 19.9497 36.0013 20.6505 35.7263 21.3034C35.4513 21.9563 35.0497 22.5483 34.5448 23.0453L31.1361 26.454L29.5442 24.8644L32.9529 21.4545C33.5377 20.87 33.8664 20.0771 33.8666 19.2503C33.8668 18.4235 33.5386 17.6304 32.9541 17.0456C32.3696 16.4608 31.5767 16.1322 30.7499 16.132C29.923 16.1317 29.13 16.46 28.5452 17.0445L25.1353 20.4544L23.5446 18.8636L26.9544 15.4549ZM29.3394 22.2499L23.2476 28.3406L21.6568 26.7499L27.7476 20.6591L29.3394 22.2499ZM21.4532 24.1354L18.0444 27.5453C17.4596 28.1301 17.1311 28.9232 17.1311 29.7503C17.1311 30.5773 17.4596 31.3705 18.0444 31.9553C18.6292 32.5401 19.4224 32.8686 20.2494 32.8686C21.0765 32.8686 21.8696 32.5401 22.4544 31.9553L25.8632 28.5454L27.4539 30.1361L24.0452 33.5449C23.0386 34.5516 21.6734 35.1172 20.2498 35.1173C18.8263 35.1174 17.4609 34.552 16.4543 33.5454C15.4476 32.5389 14.8819 31.1737 14.8818 29.7501C14.8817 28.3265 15.4471 26.9612 16.4537 25.9545L19.8624 22.5458L21.4532 24.1354Z" fill="#94949E"/>
<path d="M26.9544 15.4549C27.4514 14.95 28.0434 14.5484 28.6963 14.2734C29.3491 13.9984 30.05 13.8554 30.7585 13.8526C31.4669 13.8498 32.1689 13.9872 32.8239 14.257C33.479 14.5268 34.0741 14.9237 34.5751 15.4246C35.076 15.9256 35.4728 16.5207 35.7427 17.1758C36.0125 17.8308 36.1499 18.5328 36.1471 19.2412C36.1443 19.9497 36.0013 20.6505 35.7263 21.3034C35.4513 21.9563 35.0497 22.5483 34.5448 23.0453L31.1361 26.454L29.5442 24.8644L32.9529 21.4545C33.5377 20.87 33.8664 20.0771 33.8666 19.2503C33.8668 18.4235 33.5386 17.6304 32.9541 17.0456C32.3696 16.4608 31.5767 16.1322 30.7499 16.132C29.923 16.1317 29.13 16.46 28.5452 17.0445L25.1353 20.4544L23.5446 18.8636L26.9544 15.4549ZM29.3394 22.2499L23.2476 28.3406L21.6568 26.7499L27.7476 20.6591L29.3394 22.2499ZM21.4532 24.1354L18.0444 27.5453C17.4596 28.1301 17.1311 28.9232 17.1311 29.7503C17.1311 30.5773 17.4596 31.3705 18.0444 31.9553C18.6292 32.5401 19.4224 32.8686 20.2494 32.8686C21.0765 32.8686 21.8696 32.5401 22.4544 31.9553L25.8632 28.5454L27.4539 30.1361L24.0452 33.5449C23.0386 34.5516 21.6734 35.1172 20.2498 35.1173C18.8263 35.1174 17.4609 34.552 16.4543 33.5454C15.4476 32.5389 14.8819 31.1737 14.8818 29.7501C14.8817 28.3265 15.4471 26.9612 16.4537 25.9545L19.8624 22.5458L21.4532 24.1354Z" fill="#94949E"/>
<path d="M22.1966 19.2147C21.9449 18.6554 21.6801 18.6441 21.4408 18.6343C21.2448 18.6258 21.0208 18.6265 20.797 18.6265C20.573 18.6265 20.209 18.7107 19.9014 19.0467C19.5934 19.3829 18.7256 20.1954 18.7256 21.848C18.7256 23.5007 19.9293 25.0978 20.0971 25.3222C20.2651 25.5461 22.4209 29.0459 25.8351 30.3924C28.6727 31.5113 29.2501 31.2887 29.8659 31.2326C30.4819 31.1767 31.8534 30.4203 32.1332 29.6359C32.4132 28.8517 32.4132 28.1794 32.3293 28.0389C32.2453 27.899 32.0213 27.8149 31.6854 27.647C31.3494 27.479 29.6979 26.6664 29.3901 26.5542C29.0821 26.4422 28.8582 26.3863 28.6342 26.7227C28.4101 27.0585 27.7669 27.8149 27.5708 28.0389C27.375 28.2635 27.1789 28.2914 26.8431 28.1234C26.507 27.9549 25.4252 27.6006 24.1417 26.4564C23.1431 25.566 22.469 24.4665 22.273 24.1302C22.0771 23.7943 22.252 23.6123 22.4205 23.4449C22.5714 23.2944 22.7565 23.0527 22.9246 22.8566C23.0921 22.6604 23.148 22.5205 23.26 22.2965C23.3721 22.0722 23.316 21.8761 23.2322 21.7081C23.148 21.5401 22.4952 19.8788 22.1966 19.2147Z" fill="white"/>
</g>
<defs>
<clipPath id="clip0_699_3390">
<rect width="27" height="27.2109" fill="white" transform="translate(12 11.3945)"/>
</clipPath>
</defs>
</svg>
