<svg width="50" height="50" viewBox="0 0 50 50" fill="none" xmlns="http://www.w3.org/2000/svg">
<rect x="0.5" y="0.5" width="49" height="49" rx="24.5" stroke="#ECECEE"/>
<g clip-path="url(#clip0_699_3368)">
<path d="M18.1364 35.2553V24.8234L14.9011 21.8637L12 20.2212V33.4144C12 34.433 12.8253 35.2553 13.841 35.2553H18.1364Z" fill="#4285F4"/>
<path d="M32.8638 35.2552H37.1592C38.1779 35.2552 39.0002 34.4298 39.0002 33.4143V20.2212L35.7142 22.1024L32.8638 24.8233V35.2552Z" fill="#34A853"/>
<path d="M18.1365 24.8234L17.6963 20.7474L18.1365 16.8462L25.5001 22.369L32.8637 16.8462L33.3562 20.5368L32.8637 24.8234L25.5001 30.3462L18.1365 24.8234Z" fill="#EA4335"/>
<path d="M32.8638 16.8461V24.8233L39.0002 20.2211V17.7665C39.0002 15.49 36.4014 14.1922 34.5821 15.5575L32.8638 16.8461Z" fill="#FBBC04"/>
<path d="M12 20.2211L14.8222 22.3379L18.1364 24.8234V16.8461L16.4181 15.5575C14.5956 14.1921 12 15.49 12 17.7665V20.2211Z" fill="#C5221F"/>
</g>
<defs>
<clipPath id="clip0_699_3368">
<rect width="27" height="20.3555" fill="white" transform="translate(12 15)"/>
</clipPath>
</defs>
</svg>
