<svg width="24" height="25" viewBox="0 0 24 25" fill="none" xmlns="http://www.w3.org/2000/svg">
<g clip-path="url(#clip0_957_9230)">
<rect y="0.5" width="24" height="24" rx="12" fill="white"/>
<path d="M13.5161 4.5C13.1514 4.5 12.8017 4.64487 12.5438 4.90273C12.286 5.16059 12.1411 5.51033 12.1411 5.875C12.1411 6.23967 12.286 6.58941 12.5438 6.84727C12.8017 7.10513 13.1514 7.25 13.5161 7.25C13.8808 7.25 14.2305 7.10513 14.4884 6.84727C14.7462 6.58941 14.8911 6.23967 14.8911 5.875C14.8911 5.51033 14.7462 5.16059 14.4884 4.90273C14.2305 4.64487 13.8808 4.5 13.5161 4.5ZM13.1861 8.8725C12.0953 8.96417 9.11609 11.3383 9.11609 11.3383C8.93275 11.4758 8.98775 11.4667 9.13442 11.7233C9.28109 11.9708 9.26275 11.9892 9.43692 11.87C9.62025 11.7508 9.92275 11.5583 10.4269 11.2467C12.3703 10 10.7386 12.8783 9.90442 17.7275C9.57442 20.1292 11.7378 18.8917 12.2969 18.525C12.8469 18.1675 14.3228 17.15 14.4694 17.0492C14.6711 16.9117 14.5244 16.8017 14.3686 16.5725C14.2586 16.4167 14.1486 16.5267 14.1486 16.5267C13.5528 16.9208 12.4619 17.7458 12.3153 17.2233C12.1411 16.7008 13.2594 13.1167 13.8736 10.6508C13.9744 10.0642 14.2494 8.78083 13.1861 8.8725Z" fill="black"/>
</g>
<rect x="0.5" y="1" width="23" height="23" rx="11.5" stroke="#FFB400"/>
<defs>
<clipPath id="clip0_957_9230">
<rect y="0.5" width="24" height="24" rx="12" fill="white"/>
</clipPath>
</defs>
</svg>
