<svg width="50" height="51" viewBox="0 0 50 51" fill="none" xmlns="http://www.w3.org/2000/svg">
<rect y="0.866211" width="50" height="50.0001" rx="25" fill="#FFF9E6"/>
<path d="M19.6667 39.6261C19.2934 39.6261 18.9067 39.5328 18.5601 39.3462C17.8001 38.9462 17.3334 38.1461 17.3334 37.2928V35.3995C13.3067 34.9862 10.6667 32.0261 10.6667 27.7861V19.7862C10.6667 15.1995 13.7467 12.1195 18.3334 12.1195H31.6667C36.2534 12.1195 39.3334 15.1995 39.3334 19.7862V27.7861C39.3334 32.3728 36.2534 35.4528 31.6667 35.4528H26.6401L20.96 39.2395C20.5734 39.4929 20.1201 39.6261 19.6667 39.6261ZM18.3334 14.1062C14.8934 14.1062 12.6667 16.3328 12.6667 19.7728V27.7729C12.6667 31.2129 14.8934 33.4396 18.3334 33.4396C18.8801 33.4396 19.3334 33.8929 19.3334 34.4396V37.2796C19.3334 37.4529 19.4401 37.5329 19.5068 37.5729C19.5734 37.6129 19.7068 37.6529 19.8534 37.5595L25.7868 33.6129C25.9468 33.5062 26.1468 33.4396 26.3468 33.4396H31.6801C35.1201 33.4396 37.3468 31.2129 37.3468 27.7729V19.7728C37.3468 16.3328 35.1201 14.1062 31.6801 14.1062H18.3334Z" fill="#FFC107"/>
<path d="M24.9997 26.0128C24.453 26.0128 23.9997 25.5595 23.9997 25.0128V24.7329C23.9997 23.1862 25.133 22.4262 25.5597 22.1329C26.053 21.7995 26.213 21.5729 26.213 21.2262C26.213 20.5595 25.6663 20.0128 24.9997 20.0128C24.333 20.0128 23.7864 20.5595 23.7864 21.2262C23.7864 21.7729 23.333 22.2262 22.7864 22.2262C22.2397 22.2262 21.7864 21.7729 21.7864 21.2262C21.7864 19.4529 23.2263 18.0128 24.9997 18.0128C26.773 18.0128 28.213 19.4529 28.213 21.2262C28.213 22.7462 27.093 23.5062 26.6797 23.7862C26.1597 24.1328 25.9997 24.3595 25.9997 24.7329V25.0128C25.9997 25.5728 25.5463 26.0128 24.9997 26.0128Z" fill="#FFC107"/>
<path d="M25 29.3329C24.44 29.3329 24 28.8796 24 28.3329C24 27.7862 24.4533 27.3329 25 27.3329C25.5467 27.3329 26 27.7862 26 28.3329C26 28.8796 25.56 29.3329 25 29.3329Z" fill="#FFC107"/>
</svg>
