<svg width="172" height="73" viewBox="0 0 172 73" fill="none" xmlns="http://www.w3.org/2000/svg">
<path d="M68.8885 31.2323H61.9588V41.3477H58.3461V18.3581H61.9588V27.7838H68.8885V18.3581H72.4683V41.3477H68.8885V31.2323Z" fill="#FEC009"/>
<path d="M83.7644 41.1507C83.6987 41.1726 83.447 41.2711 83.0091 41.4462C82.5712 41.6214 82.0019 41.709 81.3013 41.709C77.185 41.709 75.1269 39.7056 75.1269 35.6988V24.8937H78.7396V35.1734C78.7396 36.1805 78.9147 36.925 79.265 37.4066C79.6372 37.8883 80.316 38.1292 81.3013 38.1292C82.2865 38.1292 82.9434 37.8664 83.2718 37.341C83.6002 36.7936 83.7644 36.0273 83.7644 35.042V24.8937H87.3771V41.3477H83.9943L83.7644 41.1507Z" fill="#FEC009"/>
<path d="M94.7322 36.8155C94.7322 37.2096 94.9293 37.5818 95.3234 37.9321C95.7394 38.2824 96.3634 38.4576 97.1954 38.4576C97.9179 38.4576 98.4763 38.2824 98.8704 37.9321C99.2645 37.5599 99.4615 37.133 99.4615 36.6513C99.4615 35.9725 99.2097 35.4689 98.7062 35.1405C98.2245 34.8121 97.4362 34.4508 96.3415 34.0567C95.4 33.7502 94.6228 33.4437 94.0097 33.1371C93.3966 32.8306 92.8493 32.3708 92.3676 31.7578C91.8859 31.1447 91.6013 30.3455 91.5137 29.3603C91.448 28.6159 91.5903 27.8714 91.9406 27.127C92.3128 26.3607 92.9259 25.7367 93.7798 25.255C94.6556 24.7514 95.7722 24.4996 97.1297 24.4996C97.8304 24.4996 98.4434 24.5762 98.9689 24.7295C99.5163 24.8609 99.9432 25.0032 100.25 25.1565C100.556 25.3097 100.742 25.4083 100.808 25.452L99.7571 28.802C99.7133 28.7582 99.5929 28.6815 99.3958 28.5721C99.2207 28.4407 98.936 28.3203 98.5419 28.2108C98.1478 28.1013 97.6771 28.0466 97.1297 28.0466C95.9474 28.0466 95.3562 28.375 95.3562 29.0319C95.3562 29.1632 95.3781 29.2946 95.4219 29.426C95.4876 29.7325 95.7175 29.9952 96.1116 30.2142C96.5057 30.4112 97.0859 30.6521 97.8523 30.9367C98.9251 31.3308 99.8228 31.7249 100.545 32.119C101.29 32.4912 101.925 33.0605 102.45 33.8268C102.998 34.5713 103.271 35.5346 103.271 36.717C103.271 37.6146 103.052 38.4576 102.614 39.2458C102.176 40.0121 101.498 40.6361 100.578 41.1178C99.6805 41.5995 98.5529 41.8404 97.1954 41.8404C95.9474 41.8404 94.8636 41.6324 93.944 41.2163C93.0463 40.7785 92.3566 40.2092 91.875 39.5085C91.4152 38.8079 91.1634 38.0306 91.1196 37.1767L94.7322 36.8155Z" fill="#FEC009"/>
<path d="M107.21 24.8937H110.56L110.823 25.0251C111.721 24.7186 112.564 24.5653 113.352 24.5653C113.899 24.5653 114.698 24.6748 115.749 24.8937L116.406 25.0251L115.552 28.5392C114.939 28.2327 114.337 28.0794 113.746 28.0794C112.936 28.0794 112.246 28.3312 111.677 28.8348C111.108 29.3165 110.823 29.9624 110.823 30.7725V41.3477H107.21V24.8937Z" fill="#FEC009"/>
<path d="M122.448 21.9051C121.922 21.9051 121.462 21.708 121.068 21.3139C120.674 20.9198 120.477 20.46 120.477 19.9345C120.477 19.431 120.674 18.9931 121.068 18.6208C121.462 18.2267 121.922 18.0297 122.448 18.0297C122.951 18.0297 123.389 18.2267 123.761 18.6208C124.156 18.9931 124.353 19.431 124.353 19.9345C124.353 20.46 124.156 20.9198 123.761 21.3139C123.389 21.708 122.951 21.9051 122.448 21.9051ZM120.543 24.8937H124.156V41.3477H120.543V24.8937Z" fill="#FEC009"/>
<path d="M126.584 29.9843C126.584 27.6853 127.514 26.1089 129.376 25.255C130.273 24.8171 131.324 24.5981 132.528 24.5981C133.557 24.5981 134.422 24.7295 135.123 24.9922V18.3581H138.703V41.3477L136.896 41.5119C135.473 41.6652 134.357 41.7418 133.546 41.7418C132.736 41.7418 131.97 41.6652 131.248 41.5119C130.547 41.3587 129.846 41.1069 129.146 40.7566C128.357 40.3624 127.733 39.7822 127.274 39.0159C126.814 38.2496 126.584 37.3081 126.584 36.1915V29.9843ZM135.123 28.802C134.335 28.4297 133.601 28.2436 132.922 28.2436C132.134 28.2436 131.477 28.4954 130.952 28.999C130.426 29.5026 130.164 30.2689 130.164 31.298V36.4214C130.164 36.9906 130.47 37.4614 131.083 37.8336C131.696 38.2058 132.474 38.3919 133.415 38.3919C134.006 38.3919 134.576 38.3153 135.123 38.162V28.802Z" fill="#FEC009"/>
<path d="M147.897 45.4202C148.641 45.4202 149.222 45.2012 149.638 44.7633C150.075 44.3473 150.294 43.7124 150.294 42.8585V41.085C150.119 41.2163 149.802 41.3587 149.342 41.5119C148.904 41.6652 148.335 41.7418 147.634 41.7418C145.707 41.7418 144.208 41.2163 143.135 40.1654C142.062 39.1144 141.525 37.5818 141.525 35.5675V30.674C141.525 28.7472 142.084 27.2584 143.2 26.2074C144.339 25.1346 145.861 24.5981 147.766 24.5981C148.379 24.5981 148.926 24.6748 149.408 24.828C149.889 24.9594 150.196 25.1017 150.327 25.255L151.017 24.8937H153.907V43.4496C153.907 46.6463 152.188 48.2446 148.751 48.2446L147.897 45.4202ZM150.294 31.0024C150.294 30.1266 150.097 29.4369 149.703 28.9333C149.309 28.4297 148.619 28.178 147.634 28.178C146.736 28.178 146.091 28.4407 145.696 28.9662C145.324 29.4698 145.138 30.0938 145.138 30.8382V35.0748C145.138 37.1986 145.97 38.2605 147.634 38.2605C148.707 38.2605 149.419 37.9102 149.769 37.2096C150.119 36.509 150.294 35.3595 150.294 33.7611V31.0024Z" fill="#FEC009"/>
<path d="M160.835 36.4542C160.835 37.0673 160.999 37.549 161.328 37.8993C161.678 38.2277 162.182 38.3919 162.838 38.3919C163.846 38.3919 165.192 37.954 166.878 37.0782L168.192 40.1982C167.403 40.7018 166.506 41.085 165.499 41.3477C164.491 41.6105 163.484 41.7418 162.477 41.7418C160.857 41.7418 159.565 41.3477 158.602 40.5595C157.66 39.7494 157.19 38.5452 157.19 36.9468V30.2142C157.19 28.4407 157.737 27.0613 158.832 26.076C159.948 25.0908 161.415 24.5981 163.233 24.5981C165.05 24.5981 166.462 25.0908 167.469 26.076C168.498 27.0394 169.013 28.386 169.013 30.1156V35.1077L160.835 35.5346V36.4542ZM165.367 30.1813C165.367 29.5245 165.159 29.0209 164.743 28.6706C164.327 28.3203 163.813 28.1451 163.2 28.1451C162.368 28.1451 161.766 28.3641 161.393 28.802C161.021 29.2399 160.835 29.7215 160.835 30.247V32.2176L165.367 31.922V30.1813Z" fill="#FEC009"/>
<path fill-rule="evenodd" clip-rule="evenodd" d="M23.2121 16.14C8.51359 20.8954 0.744298 31.2768 0.0433064 44.7849C-0.76629 60.3789 9.88338 72.5529 22.9326 72.2893L22.9846 54.8285L28.8106 48.0954L28.8994 72.4108C35.3749 72.6327 39.9088 67.5991 42.8437 64.6681C51.6008 55.9218 50.4924 47.2674 50.4924 36.4301C50.4924 24.9382 50.1099 11.0605 50.4203 0C49.0277 0.63789 40.3797 6.10159 38.2132 7.37565C34.3546 9.64561 32.483 10.6484 28.8132 12.9063L28.7741 32.4907L22.9365 38.4614L23.2125 16.1408L23.2121 16.14Z" fill="#FEC009"/>
</svg>
