<svg width="41" height="42" viewBox="0 0 41 42" fill="none" xmlns="http://www.w3.org/2000/svg">
<rect y="0.5" width="41" height="41" rx="20.5" fill="#F7F7F8"/>
<path d="M21 14.9399V18.2699" stroke="#292D32" stroke-width="1.5" stroke-miterlimit="10" stroke-linecap="round"/>
<path d="M21.0199 10.5C17.3399 10.5 14.3599 13.48 14.3599 17.16V19.26C14.3599 19.94 14.0799 20.96 13.7299 21.54L12.4599 23.66C11.6799 24.97 12.2199 26.43 13.6599 26.91C18.4399 28.5 23.6099 28.5 28.3899 26.91C29.7399 26.46 30.3199 24.88 29.5899 23.66L28.3199 21.54C27.9699 20.96 27.6899 19.93 27.6899 19.26V17.16C27.6799 13.5 24.6799 10.5 21.0199 10.5Z" stroke="#292D32" stroke-width="1.5" stroke-miterlimit="10" stroke-linecap="round"/>
<path d="M24.3299 27.3199C24.3299 29.1499 22.8299 30.6499 20.9999 30.6499C20.0899 30.6499 19.2499 30.2699 18.6499 29.6699C18.0499 29.0699 17.6699 28.2299 17.6699 27.3199" stroke="#292D32" stroke-width="1.5" stroke-miterlimit="10"/>
</svg>
