<svg width="25" height="25" viewBox="0 0 25 25" fill="none" xmlns="http://www.w3.org/2000/svg">
<path d="M18.8282 1.61865L23.175 6.1499V23.3812H6.93677V23.4374H23.2305V6.20693L18.8282 1.61865Z" fill="#909090"/>
<path d="M18.7743 1.5625H6.88135V23.3813H23.1751V6.15078L18.7743 1.5625Z" fill="#F4F4F4"/>
<path d="M6.76172 2.73438H1.76953V8.06797H17.4727V2.73438H6.76172Z" fill="#7A7B7C"/>
<path d="M17.5562 7.97715H1.87109V2.63965H17.5562V7.97715Z" fill="#DD2025"/>
<path d="M7.07188 3.5421H6.05078V7.2921H6.85391V6.02726L7.03125 6.03742C7.20357 6.03445 7.37427 6.00358 7.53672 5.94601C7.67914 5.89702 7.81016 5.81969 7.92188 5.71867C8.03555 5.62243 8.12517 5.50098 8.18359 5.36398C8.26195 5.13624 8.28994 4.89421 8.26563 4.6546C8.26075 4.48344 8.23074 4.31392 8.17656 4.15148C8.12725 4.03422 8.05406 3.92851 7.96165 3.84108C7.86925 3.75365 7.75965 3.68642 7.63984 3.64367C7.53626 3.60616 7.42923 3.57895 7.32031 3.56242C7.23783 3.54969 7.15455 3.5429 7.07109 3.5421M6.92344 5.33429H6.85391V4.17804H7.00469C7.07123 4.17324 7.13801 4.18346 7.20008 4.20793C7.26215 4.23241 7.31792 4.27052 7.36328 4.31945C7.45728 4.44524 7.5075 4.59836 7.50625 4.75538C7.50625 4.94757 7.50625 5.12179 7.33281 5.24445C7.20786 5.31317 7.06564 5.34489 6.92344 5.33429ZM9.79141 3.53195C9.70469 3.53195 9.62031 3.5382 9.56094 3.54054L9.375 3.54523H8.76563V7.29523H9.48281C9.75689 7.30274 10.0298 7.25629 10.2859 7.15851C10.4921 7.07673 10.6747 6.9449 10.8172 6.77492C10.9558 6.6034 11.0552 6.4037 11.1086 6.18976C11.17 5.94747 11.1999 5.69829 11.1977 5.44835C11.2128 5.15316 11.19 4.85725 11.1297 4.56788C11.0725 4.35489 10.9654 4.15858 10.8172 3.99523C10.7009 3.86332 10.5586 3.75692 10.3992 3.68273C10.2623 3.61938 10.1183 3.57269 9.97031 3.54367C9.91145 3.53394 9.85184 3.5295 9.79219 3.53038M9.65 6.60617H9.57188V4.21242H9.58203C9.74309 4.19388 9.90605 4.22295 10.0508 4.29601C10.1568 4.38064 10.2431 4.48726 10.3039 4.60851C10.3695 4.73611 10.4073 4.87617 10.4148 5.01945C10.4219 5.19132 10.4148 5.33195 10.4148 5.44835C10.418 5.58244 10.4094 5.71656 10.3891 5.84913C10.365 5.98525 10.3205 6.11695 10.257 6.23976C10.1852 6.35394 10.0882 6.45016 9.97344 6.52101C9.87705 6.58335 9.76291 6.61244 9.64844 6.60382M13.6172 3.54523H11.7188V7.29523H12.5219V5.80773H13.5375V5.11085H12.5219V4.2421H13.6156V3.54523" fill="#464648"/>
<path d="M17.0163 15.8243C17.0163 15.8243 19.5069 15.3727 19.5069 16.2235C19.5069 17.0743 17.9639 16.7282 17.0163 15.8243ZM15.1749 15.8891C14.7792 15.9766 14.3935 16.1046 14.0241 16.2712L14.3366 15.5681C14.6491 14.8649 14.9733 13.9063 14.9733 13.9063C15.3462 14.5339 15.7801 15.1232 16.2686 15.6657C15.9002 15.7206 15.5351 15.7958 15.1749 15.8907V15.8891ZM14.1889 10.811C14.1889 10.0696 14.4288 9.86727 14.6155 9.86727C14.8022 9.86727 15.0124 9.95712 15.0194 10.6009C14.9586 11.2482 14.823 11.8863 14.6155 12.5024C14.3312 11.9851 14.1841 11.4036 14.1882 10.8134L14.1889 10.811ZM10.5569 19.0266C9.79285 18.5696 12.1593 17.1626 12.5882 17.1173C12.5858 17.1181 11.3569 19.5048 10.5569 19.0266ZM20.2343 16.3243C20.2264 16.2462 20.1561 15.3813 18.6171 15.4181C17.9756 15.4077 17.3344 15.4529 16.7007 15.5532C16.0868 14.9348 15.5582 14.2372 15.1288 13.479C15.3993 12.6973 15.563 11.8826 15.6155 11.0571C15.5928 10.1196 15.3686 9.58212 14.6499 9.58993C13.9311 9.59774 13.8264 10.2266 13.921 11.1626C14.0136 11.7915 14.1882 12.4056 14.4405 12.9891C14.4405 12.9891 14.1085 14.0227 13.6694 15.0509C13.2303 16.079 12.9304 16.6181 12.9304 16.6181C12.1669 16.8666 11.4481 17.2359 10.8014 17.7118C10.1577 18.311 9.89597 18.7712 10.235 19.2313C10.5272 19.6282 11.5499 19.7181 12.4639 18.5204C12.9496 17.9018 13.3933 17.2514 13.7921 16.5735C13.7921 16.5735 15.1858 16.1915 15.6194 16.0868C16.053 15.9821 16.5772 15.8993 16.5772 15.8993C16.5772 15.8993 17.8499 17.1798 19.0772 17.1345C20.3046 17.0891 20.2452 16.4009 20.2374 16.3259" fill="#DD2025"/>
<path d="M18.7141 1.62256V6.21084H23.1149L18.7141 1.62256Z" fill="#909090"/>
<path d="M18.7742 1.5625V6.15078H23.175L18.7742 1.5625Z" fill="#F4F4F4"/>
<path d="M7.01182 3.48204H5.99072V7.23204H6.79697V5.96798L6.9751 5.97814C7.14742 5.97517 7.31812 5.9443 7.48057 5.88673C7.62298 5.83773 7.754 5.76039 7.86572 5.65939C7.97854 5.5629 8.06734 5.44146 8.1251 5.3047C8.20345 5.07696 8.23144 4.83493 8.20713 4.59533C8.20225 4.42416 8.17224 4.25464 8.11807 4.0922C8.06875 3.97494 7.99556 3.86923 7.90315 3.7818C7.81075 3.69438 7.70116 3.62714 7.58135 3.58439C7.47728 3.54652 7.36973 3.51904 7.26025 3.50236C7.17777 3.48963 7.09449 3.48284 7.01104 3.48204M6.86338 5.27423H6.79385V4.11798H6.94541C7.01196 4.11318 7.07873 4.1234 7.1408 4.14787C7.20287 4.17235 7.25864 4.21046 7.304 4.25939C7.398 4.38518 7.44822 4.5383 7.44697 4.69533C7.44697 4.88751 7.44697 5.06173 7.27354 5.18439C7.14859 5.25311 7.00637 5.28405 6.86416 5.27345M9.73135 3.47189C9.64463 3.47189 9.56025 3.47814 9.50088 3.48048L9.31729 3.48517H8.70791V7.23517H9.4251C9.69918 7.24268 9.97206 7.19623 10.2282 7.09845C10.4344 7.01667 10.617 6.88484 10.7595 6.71486C10.898 6.54334 10.9975 6.34364 11.0509 6.1297C11.1123 5.88741 11.1422 5.63823 11.1399 5.38829C11.1551 5.0931 11.1323 4.79719 11.072 4.50783C11.0148 4.29483 10.9076 4.09852 10.7595 3.93517C10.6432 3.80327 10.5009 3.69686 10.3415 3.62267C10.2046 3.55932 10.0606 3.51264 9.9126 3.48361C9.85374 3.47388 9.79412 3.46944 9.73447 3.47033M9.59229 6.54611H9.51416V4.15236H9.52432C9.68538 4.13383 9.84834 4.16289 9.99307 4.23595C10.0991 4.32058 10.1854 4.4272 10.2462 4.54845C10.3118 4.67606 10.3496 4.81611 10.3571 4.95939C10.3642 5.13126 10.3571 5.27189 10.3571 5.38829C10.3603 5.52239 10.3517 5.6565 10.3313 5.78908C10.3073 5.92519 10.2628 6.05689 10.1993 6.1797C10.1275 6.29388 10.0305 6.3901 9.91572 6.46095C9.81933 6.52329 9.70519 6.55238 9.59072 6.54376M13.5571 3.48517H11.6587V7.23517H12.4618V5.74767H13.4774V5.05079H12.4618V4.18204H13.5556V3.48517" fill="white"/>
</svg>
