<svg width="53" height="53" viewBox="0 0 54 53" fill="none" xmlns="http://www.w3.org/2000/svg">
<path d="M0.707031 0H20.991C39.0596 0 53.707 14.6475 53.707 32.716V53H33.4231C15.3545 53 0.707031 38.3525 0.707031 20.284V0Z" fill="#FEC009" fill-opacity="0.08"/>
<path d="M37.1622 16.3682H30.8803C30.685 16.368 30.4976 16.4452 30.359 16.5828L17.8004 29.1414C17.5255 29.4177 17.3711 29.7917 17.3711 30.1815C17.3711 30.5714 17.5255 30.9454 17.8004 31.2217L23.7807 37.2019C24.057 37.4769 24.431 37.6313 24.8209 37.6313C25.2107 37.6313 25.5847 37.4769 25.861 37.2019L38.4144 24.6485C38.5521 24.5099 38.6293 24.3225 38.6291 24.1272V17.8402C38.6301 17.6471 38.5928 17.4557 38.5195 17.277C38.4461 17.0983 38.3382 16.9358 38.2019 16.799C38.0655 16.6622 37.9035 16.5537 37.725 16.4798C37.5466 16.4058 37.3553 16.3679 37.1622 16.3682Z" stroke="#FEC009" stroke-width="1.63563" stroke-linecap="round" stroke-linejoin="round"/>
<path d="M34.5426 22.0935C34.2191 22.0935 33.9029 21.9976 33.6339 21.8179C33.3649 21.6381 33.1553 21.3827 33.0315 21.0838C32.9077 20.7849 32.8753 20.4561 32.9384 20.1388C33.0015 19.8215 33.1573 19.5301 33.386 19.3013C33.6148 19.0726 33.9062 18.9168 34.2235 18.8537C34.5408 18.7906 34.8697 18.823 35.1685 18.9468C35.4674 19.0706 35.7229 19.2802 35.9026 19.5492C36.0823 19.8182 36.1782 20.1344 36.1782 20.4579C36.1782 20.8917 36.0059 21.3077 35.6992 21.6145C35.3924 21.9212 34.9764 22.0935 34.5426 22.0935Z" fill="#FEC009"/>
</svg>
