<svg width="50" height="51" viewBox="0 0 50 51" fill="none" xmlns="http://www.w3.org/2000/svg">
<rect y="0.866211" width="50" height="50.0001" rx="25" fill="#ECEEF8"/>
<path d="M22.986 27.3089C22.9438 27.3089 22.9157 27.3089 22.8735 27.3089C22.8033 27.2948 22.7049 27.2948 22.6206 27.3089C18.546 27.1824 15.469 23.979 15.469 20.0308C15.469 16.0124 18.7427 12.7386 22.7611 12.7386C26.7796 12.7386 30.0533 16.0124 30.0533 20.0308C30.0392 23.979 26.9482 27.1824 23.0281 27.3089C23.0141 27.3089 23 27.3089 22.986 27.3089ZM22.7611 14.8462C19.9089 14.8462 17.5766 17.1786 17.5766 20.0308C17.5766 22.8409 19.7684 25.103 22.5644 25.2013C22.6487 25.1873 22.8314 25.1873 23.0141 25.2013C25.7679 25.0749 27.9317 22.8128 27.9457 20.0308C27.9457 17.1786 25.6134 14.8462 22.7611 14.8462Z" fill="#3F51B5"/>
<path d="M33.3551 27.4917C33.3129 27.4917 33.2708 27.4917 33.2286 27.4776C32.6526 27.5338 32.0624 27.1263 32.0062 26.5503C31.95 25.9742 32.3013 25.4544 32.8774 25.3841C33.046 25.37 33.2286 25.37 33.3832 25.37C35.4345 25.2576 37.0363 23.5716 37.0363 21.5062C37.0363 19.3705 35.3081 17.6423 33.1724 17.6423C32.5964 17.6564 32.1186 17.1787 32.1186 16.6026C32.1186 16.0265 32.5964 15.5488 33.1724 15.5488C36.4602 15.5488 39.1438 18.2325 39.1438 21.5202C39.1438 24.7518 36.6148 27.3652 33.3972 27.4917C33.3832 27.4917 33.3691 27.4917 33.3551 27.4917Z" fill="#3F51B5"/>
<path d="M23 42.6661C20.2462 42.6661 17.4782 41.9636 15.3847 40.5585C13.4317 39.2659 12.3639 37.4956 12.3639 35.5707C12.3639 33.6457 13.4317 31.8613 15.3847 30.5547C19.5998 27.7586 26.4283 27.7586 30.6153 30.5547C32.5543 31.8473 33.6362 33.6176 33.6362 35.5425C33.6362 37.4675 32.5683 39.2519 30.6153 40.5585C28.5078 41.9636 25.7539 42.6661 23 42.6661ZM16.5509 32.325C15.2021 33.2242 14.4714 34.3764 14.4714 35.5847C14.4714 36.779 15.2161 37.9311 16.5509 38.8163C20.0495 41.1627 25.9506 41.1627 29.4492 38.8163C30.798 37.9171 31.5286 36.7649 31.5286 35.5566C31.5286 34.3623 30.7839 33.2102 29.4492 32.325C25.9506 29.9926 20.0495 29.9926 16.5509 32.325Z" fill="#3F51B5"/>
<path d="M35.8841 40.1371C35.3924 40.1371 34.9568 39.7998 34.8585 39.294C34.7461 38.718 35.1114 38.17 35.6734 38.0435C36.5586 37.8609 37.3735 37.5096 38.0057 37.0179C38.8066 36.4137 39.2422 35.655 39.2422 34.8541C39.2422 34.0532 38.8066 33.2945 38.0198 32.7044C37.4016 32.2267 36.6288 31.8895 35.7155 31.6787C35.1535 31.5523 34.7882 30.9902 34.9147 30.4142C35.0411 29.8522 35.6031 29.4869 36.1792 29.6133C37.3875 29.8803 38.4413 30.358 39.2984 31.0183C40.6051 32.0019 41.3497 33.3929 41.3497 34.8541C41.3497 36.3153 40.591 37.7063 39.2843 38.7039C38.4132 39.3783 37.3173 39.8701 36.1089 40.1089C36.0246 40.137 35.9544 40.1371 35.8841 40.1371Z" fill="#3F51B5"/>
</svg>
