<svg width="54" height="53" viewBox="0 0 54 53" fill="none" xmlns="http://www.w3.org/2000/svg">
<path d="M0.579346 0H20.8633C38.9319 0 53.5793 14.6475 53.5793 32.716V53H33.2954C15.2268 53 0.579346 38.3525 0.579346 20.284V0Z" fill="#FEC009" fill-opacity="0.08"/>
<path d="M28.6333 32.1434C28.6333 32.3861 28.5613 32.6233 28.4265 32.825C28.2917 33.0268 28.1001 33.184 27.8759 33.2769C27.6517 33.3697 27.405 33.394 27.1671 33.3467C26.9291 33.2994 26.7105 33.1825 26.5389 33.0109C26.3673 32.8393 26.2505 32.6207 26.2031 32.3828C26.1558 32.1448 26.1801 31.8981 26.2729 31.6739C26.3658 31.4497 26.523 31.2581 26.7248 31.1233C26.9266 30.9885 27.1638 30.9166 27.4064 30.9166C27.7318 30.9166 28.0438 31.0458 28.2739 31.2759C28.504 31.506 28.6333 31.818 28.6333 32.1434ZM27.4064 21.1017C25.151 21.1017 23.3169 22.7529 23.3169 24.7823V25.1913C23.3169 25.4082 23.4031 25.6162 23.5565 25.7696C23.7098 25.923 23.9179 26.0092 24.1348 26.0092C24.3517 26.0092 24.5598 25.923 24.7131 25.7696C24.8665 25.6162 24.9527 25.4082 24.9527 25.1913V24.7823C24.9527 23.6577 26.0538 22.7375 27.4064 22.7375C28.759 22.7375 29.8601 23.6577 29.8601 24.7823C29.8601 25.9069 28.759 26.8271 27.4064 26.8271C27.1895 26.8271 26.9814 26.9132 26.8281 27.0666C26.6747 27.22 26.5885 27.428 26.5885 27.645V28.4629C26.5885 28.6798 26.6747 28.8878 26.8281 29.0412C26.9814 29.1946 27.1895 29.2808 27.4064 29.2808C27.6233 29.2808 27.8314 29.1946 27.9847 29.0412C28.1381 28.8878 28.2243 28.6798 28.2243 28.4629V28.3892C30.0891 28.0467 31.4959 26.5592 31.4959 24.7823C31.4959 22.7529 29.6618 21.1017 27.4064 21.1017ZM38.0391 26.8271C38.0391 28.93 37.4155 30.9857 36.2472 32.7343C35.0788 34.4828 33.4182 35.8456 31.4754 36.6504C29.5325 37.4552 27.3946 37.6657 25.3321 37.2555C23.2695 36.8452 21.3749 35.8325 19.8879 34.3455C18.4009 32.8585 17.3883 30.9639 16.978 28.9014C16.5677 26.8388 16.7783 24.701 17.5831 22.7581C18.3878 20.8152 19.7506 19.1546 21.4992 17.9863C23.2477 16.8179 25.3035 16.1943 27.4064 16.1943C30.2255 16.1973 32.9282 17.3185 34.9216 19.3119C36.915 21.3053 38.0361 24.008 38.0391 26.8271ZM36.4033 26.8271C36.4033 25.0476 35.8757 23.3082 34.8871 21.8286C33.8985 20.3491 32.4933 19.1959 30.8494 18.515C29.2054 17.834 27.3964 17.6559 25.6512 18.003C23.906 18.3502 22.3029 19.207 21.0446 20.4653C19.7864 21.7235 18.9295 23.3266 18.5824 25.0718C18.2352 26.8171 18.4134 28.6261 19.0943 30.27C19.7753 31.914 20.9285 33.3191 22.408 34.3077C23.8875 35.2963 25.627 35.824 27.4064 35.824C29.7917 35.8213 32.0785 34.8725 33.7652 33.1858C35.4519 31.4992 36.4006 29.2124 36.4033 26.8271Z" fill="#FEC009"/>
</svg>
