<svg width="93" height="93" viewBox="0 0 253 253" fill="none" xmlns="http://www.w3.org/2000/svg">
<path d="M226.645 94.8749H173.937L193.545 75.2674C185.672 64.9607 175.526 56.6112 163.896 50.8696C152.267 45.1281 139.469 42.1497 126.5 42.1666C79.9055 42.1666 42.1663 79.9057 42.1663 126.5C42.1663 145.791 48.5968 163.396 59.4547 177.627C72.3155 162.869 96.4559 152.854 126.5 152.854C156.543 152.854 180.789 162.869 193.545 177.627C204.788 162.957 210.866 144.982 210.833 126.5H231.916C231.916 184.479 184.479 231.917 126.5 231.917C68.5205 231.917 21.083 184.479 21.083 126.5C21.083 68.5207 68.5205 21.0833 126.5 21.0833C159.6 21.0833 189.223 36.3687 208.514 60.2982L226.645 42.1666V94.8749ZM126.5 210.833C146.529 210.833 164.871 203.876 179.208 192.28C172.461 181.633 152.327 173.937 126.5 173.937C100.673 173.937 80.538 181.633 73.7913 192.28C88.128 203.876 106.471 210.833 126.5 210.833ZM126.5 63.2499C146.845 63.2499 163.395 79.8003 163.395 100.146C163.395 120.491 146.845 137.042 126.5 137.042C106.154 137.042 89.6038 120.491 89.6038 100.146C89.6038 79.8003 106.154 63.2499 126.5 63.2499ZM126.5 84.3332C117.75 84.3332 110.687 91.3962 110.687 100.146C110.687 108.895 117.75 115.958 126.5 115.958C135.249 115.958 142.312 108.895 142.312 100.146C142.312 91.3962 135.249 84.3332 126.5 84.3332Z" fill="black"/>
</svg>
