<svg width="51" height="50" viewBox="0 0 51 50" fill="none" xmlns="http://www.w3.org/2000/svg">
<rect x="1" y="0.5" width="49" height="49" rx="24.5" stroke="#ECECEE"/>
<path d="M21.5 22.125H20.375C19.7783 22.125 19.206 22.3621 18.784 22.784C18.3621 23.206 18.125 23.7783 18.125 24.375V33.375C18.125 33.9717 18.3621 34.544 18.784 34.966C19.206 35.3879 19.7783 35.625 20.375 35.625H31.625C32.2217 35.625 32.794 35.3879 33.216 34.966C33.6379 34.544 33.875 33.9717 33.875 33.375V24.375C33.875 23.7783 33.6379 23.206 33.216 22.784C32.794 22.3621 32.2217 22.125 31.625 22.125H30.5M26 27.75V15.375M26 15.375L22.625 18.75M26 15.375L29.375 18.75" stroke="#94949E" stroke-width="2" stroke-linecap="round" stroke-linejoin="round"/>
</svg>
