<svg width="49" height="48" viewBox="0 0 49 48" fill="none" xmlns="http://www.w3.org/2000/svg">
<g clip-path="url(#clip0_957_9223)">
<path d="M49.4283 41.4627H41.0943H38.8501H38.3654V31.0564H42.0214C42.9486 31.0564 43.4965 30.0756 42.9486 29.3695L35.8367 20.2089C35.3837 19.6204 34.446 19.6204 33.9929 20.2089L26.881 29.3695C26.3331 30.0756 26.8705 31.0564 27.8082 31.0564H31.4642V41.4627H30.9796H28.7354H19.0738C13.5423 41.1782 9.13818 36.3625 9.13818 31.1447C9.13818 27.5452 11.2349 24.4067 14.343 22.7099C14.0586 21.9939 13.911 21.2289 13.911 20.4246C13.911 16.7467 17.1035 13.7749 21.0545 13.7749C21.908 13.7749 22.7298 13.9122 23.4989 14.177C25.7853 9.66535 30.7162 6.53662 36.4478 6.53662C43.8653 6.54643 49.9762 11.8329 50.6716 18.5709C56.3717 19.4831 60.702 24.3969 60.702 29.958C60.702 35.9016 55.7289 41.0507 49.4283 41.4627Z" fill="#5D5D5D"/>
</g>
<defs>
<clipPath id="clip0_957_9223">
<rect width="48" height="48" fill="white" transform="translate(0.339844)"/>
</clipPath>
</defs>
</svg>
