<svg width="24" height="25" viewBox="0 0 24 25" fill="none" xmlns="http://www.w3.org/2000/svg">
<path d="M10.95 13.2L9.49995 11.775C9.31662 11.5917 9.08762 11.5 8.81295 11.5C8.53828 11.5 8.30062 11.6 8.09995 11.8C7.91662 11.9834 7.82495 12.2167 7.82495 12.5C7.82495 12.7834 7.91662 13.0167 8.09995 13.2L10.25 15.35C10.45 15.55 10.6833 15.65 10.95 15.65C11.2166 15.65 11.45 15.55 11.65 15.35L15.9 11.1C16.1 10.9 16.1956 10.6667 16.187 10.4C16.1783 10.1334 16.0826 9.90004 15.9 9.70004C15.7 9.50004 15.4626 9.39604 15.188 9.38804C14.9133 9.38004 14.6756 9.47571 14.475 9.67504L10.95 13.2ZM8.14995 22.25L6.69995 19.8L3.94995 19.2C3.69995 19.15 3.49995 19.021 3.34995 18.813C3.19995 18.605 3.14162 18.3757 3.17495 18.125L3.44995 15.3L1.57495 13.15C1.40828 12.9667 1.32495 12.75 1.32495 12.5C1.32495 12.25 1.40828 12.0334 1.57495 11.85L3.44995 9.70004L3.17495 6.87504C3.14162 6.62504 3.19995 6.39571 3.34995 6.18704C3.49995 5.97837 3.69995 5.84937 3.94995 5.80004L6.69995 5.20004L8.14995 2.75004C8.28328 2.53337 8.46662 2.38737 8.69995 2.31204C8.93328 2.23671 9.16662 2.24937 9.39995 2.35004L12 3.45004L14.6 2.35004C14.8333 2.25004 15.0666 2.23737 15.3 2.31204C15.5333 2.38671 15.7166 2.53271 15.85 2.75004L17.3 5.20004L20.0499 5.80004C20.2999 5.85004 20.5 5.97937 20.65 6.18804C20.7999 6.39671 20.8583 6.62571 20.825 6.87504L20.5499 9.70004L22.4249 11.85C22.5916 12.0334 22.6749 12.25 22.6749 12.5C22.6749 12.75 22.5916 12.9667 22.4249 13.15L20.5499 15.3L20.825 18.125C20.8583 18.375 20.7999 18.6044 20.65 18.813C20.5 19.0217 20.2999 19.1507 20.0499 19.2L17.3 19.8L15.85 22.25C15.7166 22.4667 15.5333 22.6127 15.3 22.688C15.0666 22.7634 14.8333 22.7507 14.6 22.65L12 21.55L9.39995 22.65C9.16662 22.75 8.93328 22.7627 8.69995 22.688C8.46662 22.6134 8.28328 22.4674 8.14995 22.25Z" fill="black"/>
</svg>
