<svg width="53" height="53" viewBox="0 0 54 54" fill="none" xmlns="http://www.w3.org/2000/svg">
<path d="M0.579346 0.941406H20.8633C38.9319 0.941406 53.5793 15.5889 53.5793 33.6575V53.9414H33.2954C15.2268 53.9414 0.579346 39.2939 0.579346 21.2254V0.941406Z" fill="#FEC009" fill-opacity="0.08"/>
<path d="M31.6768 26.1105L24.6174 22.5797C24.4179 22.4799 24.1961 22.4327 23.9732 22.4427C23.7502 22.4527 23.5336 22.5196 23.3437 22.637C23.1539 22.7543 22.9973 22.9183 22.8887 23.1132C22.7801 23.3082 22.7232 23.5277 22.7234 23.7508V30.4198C22.7232 30.643 22.7801 30.8625 22.8887 31.0574C22.9973 31.2524 23.1539 31.4164 23.3437 31.5337C23.5336 31.6511 23.7502 31.7179 23.9732 31.728C24.1961 31.738 24.4179 31.6908 24.6174 31.5909L31.6768 28.0602C31.8577 27.9695 32.0098 27.8303 32.1161 27.6582C32.2223 27.486 32.2786 27.2877 32.2786 27.0853C32.2786 26.883 32.2223 26.6847 32.1161 26.5125C32.0098 26.3404 31.8577 26.2012 31.6768 26.1105Z" stroke="#FEC009" stroke-linecap="round" stroke-linejoin="round"/>
<path d="M27.085 36.899C32.505 36.899 36.8987 32.5052 36.8987 27.0852C36.8987 21.6652 32.505 17.2715 27.085 17.2715C21.665 17.2715 17.2712 21.6652 17.2712 27.0852C17.2712 32.5052 21.665 36.899 27.085 36.899Z" stroke="#FEC009"/>
</svg>
