<svg width="51" height="50" viewBox="0 0 51 50" fill="none" xmlns="http://www.w3.org/2000/svg">
<rect x="1" y="0.5" width="49" height="49" rx="24.5" stroke="#ECECEE"/>
<g clip-path="url(#clip0_699_3375)">
<path d="M13.0764 24.8373C13.0758 27.1236 13.6731 29.3559 14.809 31.3236L12.9678 38.0463L19.8477 36.2424C21.7506 37.2783 23.8827 37.8211 26.0493 37.8213H26.055C33.2073 37.8213 39.0295 32.0012 39.0326 24.8476C39.034 21.3811 37.6852 18.1215 35.2348 15.6691C32.7847 13.217 29.5263 11.8658 26.0544 11.8643C18.9012 11.8643 13.0795 17.684 13.0765 24.8373" fill="url(#paint0_linear_699_3375)"/>
<path d="M12.6129 24.8329C12.6121 27.2014 13.2309 29.5136 14.4073 31.5517L12.5 38.5155L19.6266 36.6469C21.5902 37.7175 23.8011 38.282 26.0507 38.2828H26.0565C33.4655 38.2828 39.4968 32.2534 39.5 24.8437C39.5013 21.2527 38.104 17.8759 35.566 15.3357C33.0277 12.7958 29.6527 11.396 26.0565 11.3945C18.6463 11.3945 12.6158 17.4231 12.6129 24.8329ZM16.857 31.2007L16.5909 30.7783C15.4723 28.9997 14.8819 26.9443 14.8827 24.8338C14.8851 18.6749 19.8974 13.6642 26.0608 13.6642C29.0455 13.6655 31.8506 14.829 33.9604 16.9401C36.0701 19.0514 37.2309 21.8579 37.2302 24.8429C37.2275 31.0017 32.2151 36.013 26.0565 36.013H26.0521C24.0468 36.012 22.0801 35.4735 20.365 34.4558L19.9569 34.2138L15.7278 35.3225L16.857 31.2007Z" fill="url(#paint1_linear_699_3375)"/>
<path d="M22.6966 19.2147C22.4449 18.6554 22.1801 18.6441 21.9408 18.6343C21.7448 18.6258 21.5208 18.6265 21.297 18.6265C21.073 18.6265 20.709 18.7107 20.4014 19.0467C20.0934 19.3829 19.2256 20.1954 19.2256 21.848C19.2256 23.5007 20.4293 25.0978 20.5971 25.3222C20.7651 25.5461 22.9209 29.0459 26.3351 30.3924C29.1727 31.5113 29.7501 31.2887 30.3659 31.2326C30.9819 31.1767 32.3534 30.4203 32.6332 29.6359C32.9132 28.8517 32.9132 28.1794 32.8293 28.0389C32.7453 27.899 32.5213 27.8149 32.1854 27.647C31.8494 27.479 30.1979 26.6664 29.8901 26.5542C29.5821 26.4422 29.3582 26.3863 29.1342 26.7227C28.9101 27.0585 28.2669 27.8149 28.0708 28.0389C27.875 28.2635 27.6789 28.2914 27.3431 28.1234C27.007 27.9549 25.9252 27.6006 24.6417 26.4564C23.6431 25.566 22.969 24.4665 22.773 24.1302C22.5771 23.7943 22.752 23.6123 22.9205 23.4449C23.0714 23.2944 23.2565 23.0527 23.4246 22.8566C23.5921 22.6604 23.648 22.5205 23.76 22.2965C23.8721 22.0722 23.816 21.8761 23.7322 21.7081C23.648 21.5401 22.9952 19.8788 22.6966 19.2147Z" fill="white"/>
</g>
<defs>
<linearGradient id="paint0_linear_699_3375" x1="1316.21" y1="2630.07" x2="1316.21" y2="11.8643" gradientUnits="userSpaceOnUse">
<stop stop-color="#1FAF38"/>
<stop offset="1" stop-color="#60D669"/>
</linearGradient>
<linearGradient id="paint1_linear_699_3375" x1="1362.5" y1="2723.49" x2="1362.5" y2="11.3945" gradientUnits="userSpaceOnUse">
<stop stop-color="#F9F9F9"/>
<stop offset="1" stop-color="white"/>
</linearGradient>
<clipPath id="clip0_699_3375">
<rect width="27" height="27.2109" fill="white" transform="translate(12.5 11.3945)"/>
</clipPath>
</defs>
</svg>
